HIERARCHY
ROOT Hips
{
	OFFSET -14.64140 90.27770 -84.91600
	CHANNELS 6 Xposition Yposition Zposition Zrotation Xrotation Yrotation
	JOINT Spine
	{
		OFFSET 0.00000 13.20850 -1.60436
		CHANNELS 3 Zrotation Xrotation Yrotation
		JOINT Spine1
		{
			OFFSET 0.00000 8.61716 0.00000
			CHANNELS 3 Zrotation Xrotation Yrotation
			JOINT Spine2
			{
				OFFSET 0.00000 8.61717 0.00000
				CHANNELS 3 Zrotation Xrotation Yrotation
				JOINT Spine3
				{
					OFFSET 0.00000 8.61717 0.00000
					CHANNELS 3 Zrotation Xrotation Yrotation
					JOINT Neck
					{
						OFFSET 0.00000 11.07920 1.10792
						CHANNELS 3 Zrotation Xrotation Yrotation
						JOINT Neck1
						{
							OFFSET 0.00000 7.08032 0.00000
							CHANNELS 3 Zrotation Xrotation Yrotation
							JOINT Head
							{
								OFFSET 0.00000 7.08031 0.00000
								CHANNELS 3 Zrotation Xrotation Yrotation
								End site
								{
									OFFSET 0.00000 0.00000 0.00000
								}
							}
						}
					}
					JOINT RightShoulder
					{
						OFFSET -0.01000 7.91373 5.19711
						CHANNELS 3 Zrotation Xrotation Yrotation
						JOINT RightArm
						{
							OFFSET -18.41580 0.00000 0.00000
							CHANNELS 3 Zrotation Xrotation Yrotation
							JOINT RightForeArm
							{
								OFFSET -29.11090 0.00000 0.00000
								CHANNELS 3 Zrotation Xrotation Yrotation
								JOINT RightHand
								{
									OFFSET -24.65040 0.00000 0.00000
									CHANNELS 3 Zrotation Xrotation Yrotation
									JOINT RightHandThumb1
									{
										OFFSET -5.35114 -0.85590 3.97906
										CHANNELS 3 Zrotation Xrotation Yrotation
										JOINT RightHandThumb2
										{
											OFFSET -4.52789 0.00000 0.00000
											CHANNELS 3 Zrotation Xrotation Yrotation
											JOINT RightHandThumb3
											{
												OFFSET -2.46976 0.00000 0.00000
												CHANNELS 3 Zrotation Xrotation Yrotation
												End site
												{
													OFFSET 0.00000 0.00000 0.00000
												}
											}
										}
									}
									JOINT RightHandIndex1
									{
										OFFSET -14.26970 0.00000 2.88139
										CHANNELS 3 Zrotation Xrotation Yrotation
										JOINT RightHandIndex2
										{
											OFFSET -5.48836 0.00000 0.00000
											CHANNELS 3 Zrotation Xrotation Yrotation
											JOINT RightHandIndex3
											{
												OFFSET -3.01859 0.00000 0.00000
												CHANNELS 3 Zrotation Xrotation Yrotation
												End site
												{
													OFFSET 0.00000 0.00000 0.00000
												}
											}
										}
									}
									JOINT RightHandMiddle1
									{
										OFFSET -14.26970 0.00000 -0.09147
										CHANNELS 3 Zrotation Xrotation Yrotation
										JOINT RightHandMiddle2
										{
											OFFSET -6.17441 0.00000 0.00000
											CHANNELS 3 Zrotation Xrotation Yrotation
											JOINT RightHandMiddle3
											{
												OFFSET -3.56743 0.00000 0.00000
												CHANNELS 3 Zrotation Xrotation Yrotation
												End site
												{
													OFFSET 0.00000 0.00000 0.00000
												}
											}
										}
									}
									JOINT RightHandRing1
									{
										OFFSET -12.69180 0.00000 -3.06433
										CHANNELS 3 Zrotation Xrotation Yrotation
										JOINT RightHandRing2
										{
											OFFSET -5.62556 0.00000 0.00000
											CHANNELS 3 Zrotation Xrotation Yrotation
											JOINT RightHandRing3
											{
												OFFSET -3.56744 0.00000 0.00000
												CHANNELS 3 Zrotation Xrotation Yrotation
												End site
												{
													OFFSET 0.00000 0.00000 0.00000
												}
											}
										}
									}
									JOINT RightHandPinky1
									{
										OFFSET -11.11390 0.00000 -6.03719
										CHANNELS 3 Zrotation Xrotation Yrotation
										JOINT RightHandPinky2
										{
											OFFSET -4.52789 0.00000 0.00000
											CHANNELS 3 Zrotation Xrotation Yrotation
											JOINT RightHandPinky3
											{
												OFFSET -2.46976 0.00000 0.00000
												CHANNELS 3 Zrotation Xrotation Yrotation
												End site
												{
													OFFSET 0.00000 0.00000 0.00000
												}
											}
										}
									}
								}
							}
						}
					}
					JOINT LeftShoulder
					{
						OFFSET 0.01000 7.91373 5.19711
						CHANNELS 3 Zrotation Xrotation Yrotation
						JOINT LeftArm
						{
							OFFSET 18.41580 0.00000 0.00000
							CHANNELS 3 Zrotation Xrotation Yrotation
							JOINT LeftForeArm
							{
								OFFSET 29.11090 0.00000 0.00000
								CHANNELS 3 Zrotation Xrotation Yrotation
								JOINT LeftHand
								{
									OFFSET 24.65040 0.00000 0.00000
									CHANNELS 3 Zrotation Xrotation Yrotation
									JOINT LeftHandThumb1
									{
										OFFSET 5.35114 -0.85590 3.97906
										CHANNELS 3 Zrotation Xrotation Yrotation
										JOINT LeftHandThumb2
										{
											OFFSET 4.52789 0.00000 0.00000
											CHANNELS 3 Zrotation Xrotation Yrotation
											JOINT LeftHandThumb3
											{
												OFFSET 2.46977 0.00000 0.00000
												CHANNELS 3 Zrotation Xrotation Yrotation
												End site
												{
													OFFSET 0.00000 0.00000 0.00000
												}
											}
										}
									}
									JOINT LeftHandIndex1
									{
										OFFSET 14.26970 0.00000 2.88139
										CHANNELS 3 Zrotation Xrotation Yrotation
										JOINT LeftHandIndex2
										{
											OFFSET 5.48836 0.00000 0.00000
											CHANNELS 3 Zrotation Xrotation Yrotation
											JOINT LeftHandIndex3
											{
												OFFSET 3.01859 0.00000 0.00000
												CHANNELS 3 Zrotation Xrotation Yrotation
												End site
												{
													OFFSET 0.00000 0.00000 0.00000
												}
											}
										}
									}
									JOINT LeftHandMiddle1
									{
										OFFSET 14.26970 0.00000 -0.09147
										CHANNELS 3 Zrotation Xrotation Yrotation
										JOINT LeftHandMiddle2
										{
											OFFSET 6.17440 0.00000 0.00000
											CHANNELS 3 Zrotation Xrotation Yrotation
											JOINT LeftHandMiddle3
											{
												OFFSET 3.56744 0.00000 0.00000
												CHANNELS 3 Zrotation Xrotation Yrotation
												End site
												{
													OFFSET 0.00000 0.00000 0.00000
												}
											}
										}
									}
									JOINT LeftHandRing1
									{
										OFFSET 12.69180 0.00000 -3.06433
										CHANNELS 3 Zrotation Xrotation Yrotation
										JOINT LeftHandRing2
										{
											OFFSET 5.62556 0.00000 0.00000
											CHANNELS 3 Zrotation Xrotation Yrotation
											JOINT LeftHandRing3
											{
												OFFSET 3.56744 0.00000 0.00000
												CHANNELS 3 Zrotation Xrotation Yrotation
												End site
												{
													OFFSET 0.00000 0.00000 0.00000
												}
											}
										}
									}
									JOINT LeftHandPinky1
									{
										OFFSET 11.11390 0.00000 -6.03719
										CHANNELS 3 Zrotation Xrotation Yrotation
										JOINT LeftHandPinky2
										{
											OFFSET 4.52789 0.00000 0.00000
											CHANNELS 3 Zrotation Xrotation Yrotation
											JOINT LeftHandPinky3
											{
												OFFSET 2.46976 0.00000 0.00000
												CHANNELS 3 Zrotation Xrotation Yrotation
												End site
												{
													OFFSET 0.00000 0.00000 0.00000
												}
											}
										}
									}
								}
							}
						}
					}
					JOINT pCube4
					{
						OFFSET 0.00000 10.91090 1.10792
						CHANNELS 3 Zrotation Xrotation Yrotation
						End site
						{
							OFFSET 0.00000 0.00000 0.00000
						}
					}
				}
			}
		}
	}
	JOINT RightUpLeg
	{
		OFFSET -9.98441 0.00000 0.00000
		CHANNELS 3 Zrotation Xrotation Yrotation
		JOINT RightLeg
		{
			OFFSET 0.00000 -42.11790 0.00000
			CHANNELS 3 Zrotation Xrotation Yrotation
			JOINT RightFoot
			{
				OFFSET 0.00000 -45.00020 -0.00001
				CHANNELS 3 Zrotation Xrotation Yrotation
				JOINT RightForeFoot
				{
					OFFSET 0.00000 -3.74820 0.00000
					CHANNELS 3 Zrotation Xrotation Yrotation
					JOINT RightToeBase
					{
						OFFSET 0.00000 0.06325 14.43120
						CHANNELS 3 Zrotation Xrotation Yrotation
						End site
						{
							OFFSET 0.00000 0.00000 0.00000
						}
					}
				}
			}
		}
	}
	JOINT LeftUpLeg
	{
		OFFSET 9.98441 0.00000 0.00000
		CHANNELS 3 Zrotation Xrotation Yrotation
		JOINT LeftLeg
		{
			OFFSET 0.00000 -42.11800 0.00000
			CHANNELS 3 Zrotation Xrotation Yrotation
			JOINT LeftFoot
			{
				OFFSET 0.00000 -45.00070 0.00000
				CHANNELS 3 Zrotation Xrotation Yrotation
				JOINT LeftForeFoot
				{
					OFFSET 0.00000 -3.74824 0.00000
					CHANNELS 3 Zrotation Xrotation Yrotation
					JOINT LeftToeBase
					{
						OFFSET 0.00000 0.06325 14.43110
						CHANNELS 3 Zrotation Xrotation Yrotation
						End site
						{
							OFFSET 0.00000 0.00000 0.00000
						}
					}
				}
			}
		}
	}
}
MOTION
Frames: 4
Frame Time: 0.050000
0.04207126848375228 0.020414224269832262 -0.04101237797591865 -0.005052233766551833 0.014607060593979225 0.010837990626706557 -3.684580526101375 2.111932743767057 -0.7850347938403236 -1.1948518502586436 3.901954370459601 0.44361507532560357 -1.40152389425996 -1.4677158344582986 -1.3570572517139463 0.21080871680898955 0.7147668704484279 -0.8817279666296695 0.06776526404906696 11.348203615747945 -0.806620511751424 0.18803906687961247 -2.022887261266143 -3.4981294406596226 0.70298055900781 -18.618105697455363 -0.378176644540138 -4.658603142703673 1.682877490017717 -14.891565732614183 74.50186103468256 24.424605090310177 0.007467392438998898 -2.5735878697876844 1.8299249841514607 40.31977165188724 19.633823573316164 -0.14195334829120745 -3.729753872552847 4.497157829515067 -0.17000705428904098 -1.6126028059667485 0.02752689933272138 0.037016289669013734 -56.27184652540525 -0.01014137209871985 0.008479059989721155 -56.24937104018397 -38.77884530124242 -0.04591440154758199 0.0382990967201701 0.0007534077094226861 0.032096917248705906 0.04193877885299508 -0.009598275970816304 -0.023485715428614003 0.024240867812968796 -36.711783133620685 0.026411912025835017 0.032037371082975434 -0.00274959603001872 -0.016566776438387543 0.017031106095010046 0.03214857274731413 0.020704831097998058 0.04235417686350261 -19.767391624743667 -0.010327643825878552 -0.04390603650928163 0.023313435186521046 -0.010609103176102893 0.021386882382218975 0.011029692608626502 0.023394668302714448 -0.014985768331792014 24.019873014592125 -0.007068212325303982 0.012612872958238208 28.879847576499014 0.01614283540169591 -0.022302258332624197 28.900885975455157 0.02296399680252145 0.012351716124813894 5.063577527617144 1.2490022694524645 12.878947902684812 -71.71156544219271 26.71559106526621 -6.239214504308221 1.3933538731817683 -7.723010180768374 -40.68986448386206 -8.334648845869745 1.4567488277916472 2.46243667286517 -0.43057267382930986 0.0403957617216978 -8.128125687864165 0.03906324268427442 -0.017832278668252155 44.60693866447415 0.04352848295680193 0.037235989086442975 44.56817150387046 12.507932191321565 -0.040172031957730836 0.042746777604521474 0.0459312990143266 0.0403897833109851 -0.018561394279955467 0.01577916303859287 0.023303995354631006 0.024543870051461088 11.066249432888256 0.004709746149999707 -0.005379577799869836 0.020144026783920518 -0.047407230865870995 -0.0007792125612712792 -0.01441969948830106 -0.010750506107624047 -0.016572144883410397 4.739228399026407 -0.04792999481630802 0.03230595804833034 -0.031225063659020627 0.017430784476428908 0.04991205687465443 0.017033509955004692 0.0034780724152509816 -0.0011049378886239737 -5.630399809633256 0.0076075576353038365 0.02535638271386427 -6.722173934061058 -0.01973385596571359 -2.449474055556861e-05 -6.678480162651643 0.02034228460774881 0.04808770941018459 0.03785964070684014 -0.03017234047416306 0.02405729870352108 8.050548143595806 3.515575129607401 -19.247812853683016 0.011091011705500725 10.367873965869734 -0.004553708819251625 -5.66911086450112 -15.689010884430171 3.1863315344837937 -0.0075815085341096045 0.03665335895596415 0.04538784794841835 0.042759137580661175 4.669092046656027 0.016785901156022354 12.46516760248057 -8.23449907235791 6.9053818693672 0.015537615032549098 46.34865611877891 0.014788279336849923 -4.322779101737975 -14.756332876343155 -3.79903650735094 0.023958663352509728 0.006552381927718353 -0.011926407449071714 -0.004816820882412619 -10.709567976076547 -0.0315461520558387 
0.006714930908649654 -0.0466002053275562 0.04790196103277243 0.0013864367123753371 0.04040273871904211 0.029615713223485104 -3.518687226562765 2.202438843044441 -0.8042982164390309 -1.1978179392554285 3.8703137560093537 0.40030618716564176 -1.3572148310047083 -1.4470947550650801 -1.1941863658887377 0.17040932002587375 0.6295335300117014 -0.844642439998202 -0.001721768022936377 11.434073799254971 -0.7035300651600535 0.19510254817704015 -1.90975566910178 -3.431776761715844 0.6874789144015809 -18.473254889300733 -0.3094304817288546 -4.6261033530369975 1.6991558637918995 -14.79006462514317 73.94265244375619 24.352881718126348 0.6012408485678583 -2.4358561712466122 1.6929151500988102 42.15752823591993 19.780367758825484 -0.1314100209005955 -3.8545384402588114 4.575300517756995 -0.1359066613041367 -1.5765560272069443 0.0219949491704814 0.04382602286898632 -56.19682132698762 0.03432880105722248 0.006229796576056951 -56.2284172923827 -38.79623477292016 -0.0050240528145433635 0.04910910866988139 -0.04311282502230274 0.009352528498218217 0.028566380485840197 -0.01791641031416873 0.049846653309803195 0.04130722407416641 -36.72286784310082 -0.008323896323646636 0.037627498541757 0.04079583002572787 0.007850506269986532 -0.035204426464060155 8.155868622555104e-05 -0.01536855854549869 -0.008543703487258563 -19.714729098585757 -0.04879909113675804 0.03755184870161587 -0.02554866635447284 -0.04775876495938225 0.023479040122142896 0.030761493546250775 -0.002728179158087211 0.0042776961500761565 24.06552851345547 -0.008359268793743031 0.02938875914513853 28.832859391286192 -0.011683400294994588 0.005479947273669876 28.87372511263003 -0.038773666512100236 -0.0031650088796546564 5.077472163834441 1.1820690103167468 12.829027005788957 -71.54466583639575 26.64778306993677 -6.5422499316952205 1.5816346020931265 -7.811506994902914 -42.578074778649096 -8.485570718570857 1.5133581392942186 2.3263952664424306 -0.5083771978926367 0.056222486245674955 -8.168714589460254 -0.004137409354493196 -0.027459401388515957 44.52759563298041 -0.016332527115231695 0.03358070549417334 44.603714577373026 12.470542955968572 0.042285504174325854 0.026842860786627464 0.009949472508536892 0.024242464335968595 0.011936114090920956 -0.003341396357302872 0.00857750851609904 0.001903581735314939 11.1234906257065 0.011901759142427049 0.008528014571995902 0.035071602311666374 -0.027902430025362815 -0.022901736733075148 0.012347714442853687 -0.03781955444755203 -0.04945562529901427 4.751329412476414 -0.0018736584460950691 0.0018825083895962658 -0.009597751778141341 -0.02750127990539876 -0.010400643545853917 0.01554096502832189 0.03995141444215039 -0.03928964254245086 -5.614931941094309 0.00445385432306903 -0.0010800434409790932 -6.7707435113037215 0.03960625673007167 0.02211446691482433 -6.714821599947668 -0.03554174280362306 -0.012316093705780382 -0.02760413839430434 0.004496929090276597 -0.03701723065381909 8.080516179706112 3.5085556820593573 -19.179347140571615 -0.00199835060768156 10.39757920973367 0.001413446886614952 -5.656397784541004 -15.689882890539419 3.217337728526818 0.014141905564356967 -0.02948747686143746 0.007029587976990812 0.029264132146181572 4.680181930170898 -0.01858682556274234 12.41594689614413 -8.240171525464834 6.8737240694408985 -0.010127609793138323 46.38363165121899 0.027618673066029314 -4.3505514814568835 -14.721846003089237 -3.8627840806788396 0.02204935149109948 0.004238524495796922 0.009318849781124886 -0.0268017849325983 -10.724123625409083 -0.02427010078588171 
0.006972769229745771 -0.030946139697059727 0.023931318497538857 0.015494579798825818 -0.015527542250159952 0.037043365767527855 -3.3404356821975827 2.22029994641781 -0.7237827761623062 -1.1091621705707144 3.826595465391963 0.41172502080033585 -1.3381438150776324 -1.4789578105890115 -1.2071388021080256 0.1393739599138228 0.6502824365425497 -0.8097592737944214 -0.004343142963573576 11.531254196895448 -0.8169171867265607 0.18319761320014286 -1.6818226442717978 -3.630149917692939 0.723451075919128 -18.116527447524618 -0.37947362906746346 -4.6345385235645065 1.6985318088775934 -14.640895936932509 73.21183032754195 24.31794124298657 1.7509642606227203 -1.732015105817343 1.5040578677341219 45.26450825996161 19.683844526525476 -0.12324189199706384 -3.8675878296679183 4.5415738399425924 -0.17410850363007965 -1.628508223470425 -0.009820722019116723 0.04253535934902531 -56.19228730447811 -0.03522681295176777 -0.021545231723554284 -56.26272691300183 -38.78162096654821 -0.01605356493184646 -0.04187843556345421 0.013508912948780129 0.025916640394410925 -0.03112491267660005 0.04177293343906116 0.026420091610780107 0.02556677037593846 -36.73770808344407 -0.025276472304009846 0.026749284619827625 -0.0009103541981824422 -0.0030919168351052915 0.026535368263392645 -0.04278817244305306 0.008385654617127897 -0.008838020140772625 -19.7712801412502 1.6512067527470354e-05 -0.019203650941053762 -0.012881705839582694 0.009971945699723447 0.002400573604186667 0.02564608651641878 0.036175327330259154 -0.01690409267978738 24.029023619489337 -0.0024699989986632855 0.03557949841853417 28.888922029756685 -0.024185239053079365 0.010845280170134777 28.85714080807792 -0.014090462100427447 0.01952219101785131 5.201127909062554 1.2555416226197336 12.810548742629615 -70.61190341076977 26.706823002204157 -7.621665973441116 0.6667218924121745 -7.688929829539005 -46.71897823595061 -8.496973340406122 1.0622780509625718 2.4651422307908826 -0.4251411683710211 0.030413134716401745 -8.095480883012776 -0.010362675601508864 -0.027501689016887366 44.6017407800968 0.013068649451035424 0.03144965896381073 44.540487482260886 12.486227663797386 -0.034519883953235894 0.03736998329179168 -0.024303105238208052 -0.041049192064246225 0.002428022760275402 0.03218730898798178 0.03662377120032331 0.03654164097643719 11.084295351895642 0.04156132433279961 0.02818158139980567 -0.03144019801023618 0.03445737534764478 0.018357016214891865 0.004260445110367668 0.040160219079242096 0.0025780878983139247 4.7806201775518415 0.01126788044157352 -0.01263807156587138 0.009586181458426744 0.04528146958160087 -0.037367655634311284 0.009047870687256819 0.010058080260655283 -0.034377248709089786 -5.628253228328177 0.007392435101277205 0.02836379202060671 -6.739845864334712 0.00499781902328982 -0.03498199383703245 -6.725608111379134 -0.025486208352439678 -0.013437636195758648 -0.007300672779196295 0.007240200801249251 -0.027648748431184613 8.043143544280918 3.4765467920677224 -19.208420825154302 0.02242840365029939 10.387207050380756 0.036286724071225754 -5.633025423266177 -15.698316880984299 3.2173290982545577 -0.03148863422076577 -0.019913664061557146 0.04886508779756737 -0.006014946564450286 4.661407724729814 0.013984354207417294 12.464586028783295 -8.203815794910783 6.914878067388263 0.0032961362487227107 46.347966822689706 0.03338261828441385 -4.3051508973452135 -14.76436600550618 -3.8483962993594214 -0.031356795545685885 0.028288624940928774 -0.04428513046338182 0.009907306379818773 -10.74371126170978 -0.022522290161338096 
-0.03703083921402965 0.042777550029872526 -0.019556940585357802 -0.0028417231904921455 -0.01845111801852513 0.016183348799286446 -3.249188195005234 2.1241980549770676 -0.760237706531119 -1.0634147423613618 3.8476516292231504 0.35423554153049064 -1.277620426233533 -1.552652549490699 -1.1459638840602602 0.15587703218183802 0.599519041005752 -0.8144344490921965 0.06943326965798424 11.658257100187782 -0.9286247972195271 0.15262551891190917 -1.4663579028619602 -3.8933652462568236 0.7496546470358645 -17.66482301563109 -0.36359911464303 -4.6364020349817086 1.6951457010264235 -14.355495222399153 72.63157089506079 24.120587425246267 2.916761481730238 -0.19868132006889588 1.2276618780962514 49.556221348859424 19.38340794627887 -0.19440667722508437 -3.8080769320595906 4.573252383190719 -0.13192719456707516 -1.6022735187804529 -0.020376156106929423 -0.01618795227984658 -56.28204389605886 -0.0237084455203234 -0.009807739526786334 -56.271583106078474 -38.79270350566691 -0.021648133561654268 0.005732497915669182 -0.01220036228383888 0.02293619783615078 0.015064152526064179 -0.039082941922718724 0.02205889444782141 -0.04956784755702044 -36.68706784671347 0.018981587614640916 -0.0050384307594923275 -0.000884753410167446 0.018537870405954903 0.009700555095389718 -0.03657468754866261 -0.023328389146447286 0.047153578747052616 -19.799698636430044 0.039788159271429285 0.041898502434248135 0.03467531753474726 -0.01741400630217563 -0.02379244558357022 0.03140248264451992 0.013021336058513895 0.01649863228274386 24.093579596243615 0.0026570858450805294 -0.0008660466210575845 28.83419988890025 0.032974564669499745 0.00744333326900575 28.858907820601274 0.015030556928490296 -0.03373305360522945 5.386794024705401 1.3050698681821624 12.707724833593245 -69.35719912813961 27.196371228459345 -8.926244616888352 -1.6476441264399284 -6.927856996049015 -53.790056825943545 -8.764031033255138 -0.05870792373203224 2.82336421740146 -0.4974669107778527 0.09922569968674841 -8.11430977914964 0.033606295898382266 -0.03460838074770737 44.60321039911978 0.026315963195060386 0.025178051320423712 44.599516725903854 12.488924330519454 -0.03651410543978402 0.0031795326536273633 -0.009454245096560692 0.03038113234794577 0.011411859118158717 -0.017062027139225906 -0.027758146461177274 -0.0073737870277812935 11.104118913853858 -0.035649202409584725 0.0159593602449853 0.015770986029511776 0.04859006054270984 0.028323746094406715 -0.029956408668859083 0.023040185166034392 -0.01600345847916727 4.76486191865671 -0.024134157867388376 0.024214192376805194 0.0008143388939060992 0.002938454879188321 -0.030429635390374674 -0.022048961491822155 -0.046607076444241995 -0.01614227957049765 -5.5758823499127645 -0.0274667041693745 0.022270117276206897 -6.731296440120685 0.03935589467220233 -0.03460704463910844 -6.735502772209441 0.013590431055598573 -0.040548875828568864 0.042086771717460086 -0.013818474966184834 -0.014898512006627557 8.008690894586357 3.4606694093641215 -19.21105786400195 -0.02681714127845409 10.44133795073385 0.01134634743182542 -5.6540776079019786 -15.651702455018457 3.1892303057274467 0.021062014966762445 0.0012449489565953843 -0.03232394253330309 0.025426069972795548 4.649560441611581 0.01542695384669448 12.412391226210236 -8.227952710255677 6.855515929229832 -0.040907216743386356 46.418874077088596 -0.00886602094148032 -4.3046351418395705 -14.75416557866644 -3.839849465829619 -0.03811381278925924 0.04063522659736532 0.009966628052000139 -0.011019243542994845 -10.698922653418135 -0.0029295050749364895 
